<svg width="223" height="68" viewBox="0 0 223 30" preserveAspectRatio="xMinYMin" xmlns="http://www.w3.org/2000/svg">

 <g>
  <title>Layer 1</title>
  <g id="svg_3">
   <g stroke="#00000000" fill="#4fe820" stroke-width="0" font-size="9pt" fill-rule="evenodd" stroke-linecap="round" id="svgGroup">
    <path stroke="null" id="svg_1" vector-effect="non-scaling-stroke" d="m34.2238,56.16633l0,4.46199a22.15715,14.02861 0 0 1 -4.01994,-0.21938a15.85954,10.04133 0 0 1 -4.39776,-0.9271a16.08368,10.18324 0 0 1 -3.09889,-1.29769a12.78512,8.09479 0 0 1 -2.33346,-1.64598q-1.90866,-1.79719 -1.90866,-3.59438l0,-2.97466a16.36753,10.36296 0 0 1 0.13899,-1.32186a19.40672,12.2872 0 0 1 0.15465,-0.63026q0.29364,-1.02254 1.37032,-2.07606a7.16875,4.53883 0 0 1 1.46233,-1.02502q0.80164,-0.42079 1.8656,-0.77217a15.23212,9.64409 0 0 1 1.108,-0.31296q1.16869,-0.29871 2.79937,-0.60795a53.20085,33.68366 0 0 1 0.54617,-0.10163q2.88747,-0.52676 6.2154,-1.05352a100.43589,63.59012 0 0 0 5.4069,-0.95499a89.97543,56.96717 0 0 0 0.95531,-0.19149a47.13619,29.84387 0 0 0 2.13085,-0.46913q1.65613,-0.39476 2.90998,-0.8013q2.00654,-0.65071 2.00654,-1.39437l0,-1.17747a9.45425,5.98588 0 0 0 -0.25253,-1.4173a7.16973,4.53945 0 0 0 -1.06885,-1.52637a9.50809,6.01996 0 0 0 -2.20328,-1.44891a8.81803,5.58306 0 0 0 -1.02676,-0.41025q-1.90866,-0.65071 -4.06203,-0.65071l0,-4.33804q5.48129,0 9.00498,1.51831a15.68825,9.93288 0 0 1 3.80852,2.28181a14.36393,9.0944 0 0 1 1.42807,1.49848a18.56005,11.75114 0 0 1 1.22938,2.0866a14.12901,8.94566 0 0 1 0.48353,2.28243l0,17.10428q0,0.36564 0.42578,1.18057a20.54115,13.00545 0 0 0 0.01468,0.02789a1.77065,1.12107 0 0 0 1.21959,0.75296q0.4248,0.08366 0.98272,0.08366l0,4.52396a14.34141,9.08014 0 0 1 -1.85972,-0.07127q-0.94259,-0.0787 -1.72269,-0.24231a6.50316,4.11742 0 0 1 -1.11583,-0.30614q-1.76184,-0.61972 -3.03429,-1.5493q-1.85972,1.1155 -4.79613,1.64226q-2.93641,0.52676 -5.97069,0.52676l0,-4.46199a12.10387,7.66346 0 0 0 2.80721,-0.20017a10.58085,6.69918 0 0 0 1.3527,-0.26462q1.90866,-0.46479 3.13217,-1.58029a6.23791,3.94948 0 0 0 0.85743,-1.17623q0.22904,-0.50631 0.3142,-1.1062a13.22851,8.37552 0 0 0 0.05188,-0.7542l0,-7.3127a20.45991,12.95401 0 0 1 -1.84015,0.53358q-1.4682,0.37493 -3.29856,0.70586q-3.08323,0.55775 -6.41116,1.02254q-3.27507,0.45735 -5.88652,0.91471a82.65301,52.33104 0 0 0 -0.08418,0.01487a17.52644,11.09671 0 0 0 -1.28615,0.2578q-1.23133,0.28321 -1.94194,0.61476a3.4493,2.18389 0 0 0 -0.39348,0.21194q-1.17456,0.55775 -1.17456,1.98311l0,1.79719q0.08516,1.35285 0.99153,2.2564a5.24247,3.31922 0 0 0 0.28092,0.25347q1.17456,0.96057 3.18111,1.39437a12.46309,7.8909 0 0 0 2.42743,0.35076a16.50261,10.44848 0 0 0 2.124,0.08304zm135.95565,4.83382l0,-4.52396q2.02514,0 4.33609,-0.60175a16.30881,10.32578 0 0 0 0.06852,-0.01797q2.34913,-0.61972 4.01309,-1.85916a6.92307,4.38328 0 0 0 1.57881,-2.28801a9.30352,5.89044 0 0 0 0.08516,-0.81059a4.48194,2.8377 0 0 0 -1.49855,-2.17584a5.90316,3.73753 0 0 0 -0.45906,-0.24107q-1.69333,-0.8044 -4.23038,-1.3764a24.473,15.49487 0 0 0 -0.81045,-0.1729a75.74756,47.95892 0 0 0 -3.86823,-0.70338a94.96928,60.12899 0 0 0 -2.88551,-0.4431a132.43392,83.8494 0 0 1 -6.98963,-1.12727a122.63807,77.64724 0 0 1 -0.10669,-0.01921q-1.49463,-0.36811 -3.30737,-1.00395a42.24903,26.74961 0 0 1 -0.65678,-0.23549a11.33257,7.17512 0 0 1 -2.77393,-1.44457a14.29737,9.05226 0 0 1 -1.09234,-0.87938q-1.45548,-1.32868 -1.63754,-3.39235a17.13785,10.85068 0 0 1 -0.02643,-0.60485q0,-2.47392 1.32921,-4.25872a11.4422,7.24453 0 0 1 0.28581,-0.3582a15.29966,9.68685 0 0 1 2.49888,-2.17398a13.63178,8.63085 0 0 1 1.61209,-0.89364q2.49595,-1.17747 5.18765,-1.67324a21.28406,13.47582 0 0 1 2.42645,-0.35572q1.23819,-0.13138 2.36674,-0.13944a13.07093,8.27575 0 0 1 0.14976,-0.00062l0,4.46199q-2.25125,0 -4.25779,0.71268a9.38084,5.9394 0 0 0 -3.06365,1.70857a9.20172,5.82599 0 0 0 -0.1664,0.15059q-1.2235,1.14648 -1.2235,2.57184a4.36056,2.76085 0 0 0 1.53868,2.15725a6.13415,3.88379 0 0 0 0.66363,0.32163q1.98893,0.83972 5.77591,1.52761a45.70909,28.94032 0 0 0 0.831,0.14563q3.02841,0.51127 7.0278,1.13967a731.66067,463.24467 0 0 0 3.83691,0.59555q1.20295,0.15245 2.66919,0.53358a23.17217,14.67126 0 0 1 0.65873,0.1791q1.85972,0.52676 3.62157,1.45634a11.08004,7.01523 0 0 1 2.44309,1.83809a13.17957,8.34453 0 0 1 0.44438,0.51685q1.09332,1.38507 1.12464,3.29629a17.22301,10.9046 0 0 1 0.00098,0.11217a18.4749,11.69722 0 0 1 -0.49919,2.78007a14.35903,9.0913 0 0 1 -1.84994,2.76643q-2.34913,2.32395 -6.36222,3.56339a19.58486,12.39998 0 0 1 -7.91655,1.22829a22.98032,14.54979 0 0 1 -0.89267,0.01115zm-159.15327,-0.30986l-8.02618,0l0,-43.69028l8.02618,0l0,43.69028zm61.56667,0l-7.63466,0l0,-33.34095l7.63466,0l0,4.77185a10.63567,6.73388 0 0 1 0.98957,-0.96119q0.53345,-0.43752 1.22448,-0.88062a19.4214,12.29649 0 0 1 0.47766,-0.29623a17.3434,10.98082 0 0 1 2.81406,-1.35967a20.87002,13.21368 0 0 1 1.49267,-0.53048q2.49595,-0.80564 5.43235,-0.80564l1.07668,0l0.9788,0l-1.76184,4.70987a9.16648,5.80368 0 0 0 -4.74523,0.85397a12.18609,7.71552 0 0 0 -1.37228,0.60237a18.17049,11.50449 0 0 0 -4.45061,3.31736a20.93365,13.25396 0 0 0 -0.29658,0.33899a15.33979,9.71226 0 0 0 -1.76772,3.51381a14.6331,9.26482 0 0 0 -0.09201,1.04113l0,19.02541zm38.36905,0l-4.20885,0l-17.22692,-33.27898l8.4177,0l15.46508,28.69305l-2.44701,4.58593zm31.51744,0l-7.53678,0l0,-33.09307l7.53678,0l0,33.09307zm-26.72131,-9.10989l-1.17456,0l-3.71945,-6.81692l9.49438,-17.35217l8.51558,0l-13.11595,24.16909zm70.96317,-15.18315l-7.04738,0.74366a8.76224,5.54774 0 0 0 -0.24959,-1.36091a6.15177,3.89494 0 0 0 -1.56119,-1.79967a11.02132,6.97805 0 0 0 -3.23103,-1.47369a10.46046,6.62295 0 0 0 -0.87994,-0.23054q-2.18175,-0.49949 -3.6157,-0.52552a5.41278,3.42705 0 0 0 -0.15269,-0.00124l0.09788,-4.52396a19.1121,12.10066 0 0 1 4.53773,0.32721a15.21255,9.63169 0 0 1 4.17361,1.06716a18.01486,11.40595 0 0 1 3.93381,1.96389a15.82332,10.0184 0 0 1 1.89007,1.53753a14.23472,9.01259 0 0 1 1.54357,2.05375a11.39815,7.21664 0 0 1 0.56085,2.22232zm-20.75061,20.07894l0,4.52396a21.14996,13.39092 0 0 1 -4.2529,-0.25718a15.27617,9.67198 0 0 1 -4.75209,-1.13719a16.82366,10.65175 0 0 1 -3.44049,-1.68254a14.03309,8.88493 0 0 1 -2.18762,-1.81888a15.03245,9.51766 0 0 1 -1.42416,-2.09032a12.02948,7.61636 0 0 1 -0.48451,-2.12378l7.14526,-0.80564q0,1.5493 1.51714,2.75776q1.51714,1.20845 3.67051,1.89015q2.15337,0.68169 4.20885,0.74366zm-140.06662,-19.21133l-6.75374,-1.61127q0,-2.41691 2.25125,-4.30706q2.25125,-1.89015 5.72599,-2.97466q3.47475,-1.08451 7.1942,-1.08451l0,4.46199q-2.25125,0 -4.15991,0.65071a7.95179,5.03461 0 0 0 -3.06463,1.87094a9.36127,5.92701 0 0 0 -0.0186,0.01921a8.08197,5.11703 0 0 0 -1.00915,1.74327a10.97531,6.94892 0 0 0 -0.16542,1.23138zm112.75804,-12.39441q-1.76184,0 -3.13217,-0.83662a4.67378,2.95916 0 0 1 -0.93671,-0.78519a4.0033,2.53466 0 0 1 -0.43361,-1.16693a4.09335,2.59167 0 0 1 1.16477,-1.8195a5.48521,3.47291 0 0 1 0.20555,-0.13262a4.87346,3.08559 0 0 1 1.34683,-0.59369a4.22745,2.67657 0 0 1 1.78534,-0.24293a4.20298,2.66108 0 0 1 2.99807,0.78333a5.51653,3.49274 0 0 1 0.08516,0.0533a4.60527,2.91578 0 0 1 0.95923,0.86079a4.13838,2.62018 0 0 1 0.36216,1.09133a4.20298,2.66108 0 0 1 -1.23721,1.8982a5.51653,3.49274 0 0 1 -0.08418,0.05392a4.60527,2.91578 0 0 1 -1.35956,0.60733a4.13838,2.62018 0 0 1 -1.72367,0.2293z"/>
   </g>
   <path stroke="#000" id="svg_2" d="m191.79759,17.0155c2.8617,0 5.7234,0 8.5851,0c0,2.3617 0,4.72341 0,7.08511c-2.8617,0 -5.7234,0 -8.5851,0c0,-2.3617 0,-4.72341 0,-7.08511zm-12.4007,0c3.17965,0 6.35936,0 9.539,0c0,2.3617 0,4.72341 0,7.08511c-3.17965,0 -6.35936,0 -9.539,0c0,-2.3617 0,-4.72341 0,-7.08511zm-11.4468,0c3.17965,0 6.35935,0 9.539,0c0,2.3617 0,4.72341 0,7.08511c-3.17965,0 -6.35936,0 -9.539,0c0,-2.3617 0,-4.72341 0,-7.08511zm-11.4468,0c3.17965,0 6.35935,0 9.539,0c0,2.3617 0,4.72341 0,7.08511c-3.17965,0 -6.35935,0 -9.539,0c0,-2.3617 0,-4.72341 0,-7.08511zm35.2943,14.61077c3.0207,-0.15997 6.04135,0.11302 9.06205,-0.04694c0.19382,-2.49291 0.10404,-4.98582 0.29786,-7.47873c2.82689,0 5.93736,0 8.76419,0c0,-2.3617 0,-4.72341 0,-7.08511c-2.8617,0 -5.7234,0 -8.5851,0c0,-2.62412 0,-5.24823 0,-7.87234c-3.17965,0 -6.35935,0 -9.539,0c0,-2.3617 0,-4.72341 0,-7.08511c3.17965,0 6.35935,0 9.539,0c0,2.3617 0,4.72341 0,7.08511c2.82683,0 5.9373,-0.11702 8.76419,-0.11702c0.19382,2.4929 0.10405,5.10284 0.29787,7.59574c3.0207,0.15996 6.08395,-0.01357 9.10466,0.14639c0,2.33295 -0.04261,4.99938 -0.04261,7.33234c-3.17965,0 -6.35935,0 -9.539,0c0,2.62412 0,5.24823 0,7.87234c-2.8617,0 -5.7234,0 -8.5851,0c0,2.3617 0,4.72341 0,7.08511c-3.17965,0 -6.35935,0 -9.539,0c0,-2.33295 0,-5.09884 0,-7.43179l0,0.00001z" stroke-width="0" fill="#4fe820"/>
  </g>
 </g>
</svg>